<svg width="339" height="100" viewBox="0 0 339 100" fill="none" xmlns="http://www.w3.org/2000/svg">
<g clip-path="url(#clip0_19_119)">
<path d="M19 20.4079L0 34.0539V69.058L10.5341 79.5921L10.3021 42.8275L19 35.7162L27.6979 42.8275L27.4659 79.5921L38 69.058V34.0539L19 20.4079Z" fill="#252420"/>
<path d="M25.9939 50L19 54.1989L12.0062 50V62.2586L19 66.4629L25.9939 62.2586V50Z" fill="#FF7401"/>
</g>
<path d="M60.0781 42.3125L55.1875 61H50.3594L57.4688 38.25H60.4844L60.0781 42.3125ZM63.9375 61L59.0156 42.3125L58.5625 38.25H61.625L68.7969 61H63.9375ZM64.1094 52.5156V56.3125H53.8438V52.5156H64.1094ZM75.125 36.9844V61H70.75V36.9844H75.125ZM84.0156 44.0938L78.0625 52.5L74.4844 56.5156L72.9375 53.1875L75.6875 49.1719L78.7969 44.0938H84.0156ZM79.4531 61L75.7656 53.2344L78.7812 50.4531L84.4688 61H79.4531ZM93.5156 57.1094V49.2969C93.5156 48.7865 93.4531 48.3802 93.3281 48.0781C93.2135 47.776 93.0365 47.5573 92.7969 47.4219C92.5677 47.276 92.2865 47.2031 91.9531 47.2031C91.5781 47.2031 91.2656 47.2812 91.0156 47.4375C90.7656 47.5938 90.5781 47.8177 90.4531 48.1094C90.3385 48.401 90.2812 48.75 90.2812 49.1562H85.8906C85.8906 48.4271 86.0312 47.7396 86.3125 47.0938C86.5938 46.4375 87.0052 45.8646 87.5469 45.375C88.099 44.875 88.7552 44.4844 89.5156 44.2031C90.276 43.9219 91.1302 43.7812 92.0781 43.7812C93.2031 43.7812 94.2031 43.974 95.0781 44.3594C95.9531 44.7344 96.6458 45.3333 97.1562 46.1562C97.6667 46.9792 97.9219 48.0469 97.9219 49.3594V56.8906C97.9219 57.8385 97.9688 58.6094 98.0625 59.2031C98.1667 59.7969 98.3177 60.3073 98.5156 60.7344V61H94.1094C93.9115 60.5312 93.7604 59.9479 93.6562 59.25C93.5625 58.5417 93.5156 57.8281 93.5156 57.1094ZM94.0469 50.6719L94.0625 53.2969H92.4531C92.0365 53.2969 91.6719 53.3646 91.3594 53.5C91.0573 53.6354 90.8021 53.8281 90.5938 54.0781C90.3854 54.3177 90.2292 54.599 90.125 54.9219C90.0312 55.2448 89.9844 55.5885 89.9844 55.9531C89.9844 56.3594 90.0417 56.7031 90.1562 56.9844C90.2708 57.2656 90.4427 57.4792 90.6719 57.625C90.901 57.7708 91.1719 57.8438 91.4844 57.8438C91.9635 57.8438 92.3802 57.7448 92.7344 57.5469C93.0885 57.349 93.349 57.1094 93.5156 56.8281C93.6927 56.5469 93.75 56.2865 93.6875 56.0469L94.6875 57.75C94.5625 58.1354 94.3906 58.5365 94.1719 58.9531C93.9635 59.3698 93.6979 59.7552 93.375 60.1094C93.0521 60.4635 92.651 60.7552 92.1719 60.9844C91.7031 61.2031 91.1458 61.3125 90.5 61.3125C89.5938 61.3125 88.7656 61.1042 88.0156 60.6875C87.2656 60.2708 86.6719 59.6875 86.2344 58.9375C85.8073 58.1875 85.5938 57.2969 85.5938 56.2656C85.5938 55.4115 85.7292 54.6406 86 53.9531C86.2812 53.2552 86.6979 52.6667 87.25 52.1875C87.8021 51.6979 88.5 51.3229 89.3438 51.0625C90.1875 50.8021 91.1771 50.6719 92.3125 50.6719H94.0469ZM109.344 57.2656V37H113.734V61L109.766 61.0156L109.344 57.2656ZM100.578 53.1406V52.0156C100.578 50.6406 100.693 49.4375 100.922 48.4062C101.161 47.375 101.516 46.5156 101.984 45.8281C102.453 45.1406 103.026 44.6302 103.703 44.2969C104.391 43.9531 105.177 43.7812 106.062 43.7812C106.865 43.7812 107.568 43.9844 108.172 44.3906C108.786 44.7865 109.307 45.3438 109.734 46.0625C110.161 46.7812 110.505 47.6302 110.766 48.6094C111.026 49.5885 111.208 50.6615 111.312 51.8281V53.4531C111.188 54.5573 110.995 55.5885 110.734 56.5469C110.484 57.5052 110.141 58.3385 109.703 59.0469C109.276 59.7552 108.76 60.3125 108.156 60.7188C107.552 61.1146 106.849 61.3125 106.047 61.3125C105.161 61.3125 104.375 61.1354 103.688 60.7812C103.01 60.4271 102.438 59.9062 101.969 59.2188C101.51 58.5208 101.161 57.6667 100.922 56.6562C100.693 55.6354 100.578 54.4635 100.578 53.1406ZM104.953 52.0156V53.1406C104.953 53.9323 104.99 54.6146 105.062 55.1875C105.146 55.75 105.276 56.2135 105.453 56.5781C105.641 56.9323 105.885 57.1979 106.188 57.375C106.49 57.5417 106.865 57.625 107.312 57.625C107.896 57.625 108.37 57.4792 108.734 57.1875C109.099 56.8854 109.37 56.474 109.547 55.9531C109.734 55.4219 109.839 54.8125 109.859 54.125V51.1719C109.839 50.599 109.771 50.0833 109.656 49.625C109.542 49.1667 109.38 48.776 109.172 48.4531C108.964 48.1302 108.703 47.8802 108.391 47.7031C108.089 47.526 107.734 47.4375 107.328 47.4375C106.891 47.4375 106.516 47.526 106.203 47.7031C105.901 47.8802 105.661 48.1562 105.484 48.5312C105.307 48.8958 105.172 49.3698 105.078 49.9531C104.995 50.526 104.953 51.2135 104.953 52.0156ZM123.844 61.3125C122.688 61.3125 121.661 61.1354 120.766 60.7812C119.88 60.4271 119.13 59.9167 118.516 59.25C117.901 58.5729 117.432 57.7552 117.109 56.7969C116.786 55.8385 116.625 54.7448 116.625 53.5156V52.125C116.625 50.75 116.781 49.5469 117.094 48.5156C117.406 47.474 117.849 46.599 118.422 45.8906C118.995 45.1823 119.698 44.6562 120.531 44.3125C121.375 43.9583 122.328 43.7812 123.391 43.7812C124.453 43.7812 125.385 43.9583 126.188 44.3125C127 44.6562 127.672 45.1771 128.203 45.875C128.734 46.5625 129.135 47.4167 129.406 48.4375C129.677 49.4583 129.812 50.6458 129.812 52V54H118.484V50.9219H125.516V50.5312C125.516 49.8438 125.443 49.2708 125.297 48.8125C125.151 48.3438 124.922 47.9948 124.609 47.7656C124.297 47.5365 123.88 47.4219 123.359 47.4219C122.922 47.4219 122.552 47.5104 122.25 47.6875C121.948 47.8646 121.708 48.1406 121.531 48.5156C121.354 48.8906 121.224 49.3802 121.141 49.9844C121.057 50.5781 121.016 51.2917 121.016 52.125V53.5156C121.016 54.2969 121.083 54.9531 121.219 55.4844C121.354 56.0052 121.552 56.4323 121.812 56.7656C122.083 57.0885 122.411 57.3229 122.797 57.4688C123.182 57.6042 123.63 57.6719 124.141 57.6719C124.911 57.6719 125.604 57.5365 126.219 57.2656C126.844 56.9844 127.375 56.6042 127.812 56.125L129.562 58.7812C129.26 59.1771 128.844 59.5729 128.312 59.9688C127.781 60.3646 127.146 60.6875 126.406 60.9375C125.667 61.1875 124.812 61.3125 123.844 61.3125ZM136.75 47.5938V61H132.359V44.0938H136.484L136.75 47.5938ZM136.125 51.9688L134.922 52C134.901 50.8125 135.005 49.7188 135.234 48.7188C135.464 47.7188 135.807 46.849 136.266 46.1094C136.734 45.3698 137.323 44.7969 138.031 44.3906C138.74 43.9844 139.568 43.7812 140.516 43.7812C141.13 43.7812 141.698 43.8958 142.219 44.125C142.74 44.3438 143.193 44.6927 143.578 45.1719C143.964 45.6406 144.26 46.2552 144.469 47.0156C144.677 47.7656 144.781 48.6667 144.781 49.7188V61H140.406V50.25C140.406 49.5 140.333 48.9271 140.188 48.5312C140.042 48.125 139.833 47.8438 139.562 47.6875C139.292 47.5208 138.958 47.4375 138.562 47.4375C138.146 47.4375 137.781 47.5521 137.469 47.7812C137.156 48.0104 136.901 48.3333 136.703 48.75C136.516 49.1562 136.37 49.6354 136.266 50.1875C136.172 50.7396 136.125 51.3333 136.125 51.9688ZM144.359 51.5312L142.781 51.7344C142.76 50.6198 142.859 49.5833 143.078 48.625C143.297 47.6562 143.635 46.8125 144.094 46.0938C144.552 45.3646 145.125 44.7969 145.812 44.3906C146.51 43.9844 147.318 43.7812 148.234 43.7812C148.922 43.7812 149.547 43.8958 150.109 44.125C150.672 44.3542 151.151 44.724 151.547 45.2344C151.953 45.7344 152.26 46.3958 152.469 47.2188C152.688 48.0417 152.797 49.0417 152.797 50.2188V61H148.406V50.2344C148.406 49.474 148.333 48.8906 148.188 48.4844C148.042 48.0781 147.833 47.8021 147.562 47.6562C147.292 47.5104 146.969 47.4375 146.594 47.4375C146.219 47.4375 145.891 47.5417 145.609 47.75C145.339 47.9583 145.109 48.25 144.922 48.625C144.734 48.9896 144.594 49.4219 144.5 49.9219C144.406 50.4115 144.359 50.9479 144.359 51.5312Z" fill="#252420"/>
<path d="M160.391 47.7031V61H156V44.0938H160.109L160.391 47.7031ZM159.734 51.9688L158.562 52C158.542 50.7292 158.661 49.5885 158.922 48.5781C159.193 47.5677 159.573 46.7083 160.062 46C160.562 45.2812 161.156 44.7344 161.844 44.3594C162.542 43.974 163.318 43.7812 164.172 43.7812C164.828 43.7812 165.427 43.8958 165.969 44.125C166.521 44.3542 166.995 44.7188 167.391 45.2188C167.786 45.7188 168.094 46.3854 168.312 47.2188C168.531 48.0417 168.641 49.0521 168.641 50.25V61H164.25V50.2188C164.25 49.4896 164.177 48.9271 164.031 48.5312C163.885 48.125 163.667 47.8438 163.375 47.6875C163.083 47.5208 162.719 47.4375 162.281 47.4375C161.865 47.4375 161.495 47.5573 161.172 47.7969C160.849 48.026 160.578 48.3438 160.359 48.75C160.151 49.1562 159.99 49.6354 159.875 50.1875C159.771 50.7396 159.724 51.3333 159.734 51.9688ZM179.297 57.1094V49.2969C179.297 48.7865 179.234 48.3802 179.109 48.0781C178.995 47.776 178.818 47.5573 178.578 47.4219C178.349 47.276 178.068 47.2031 177.734 47.2031C177.359 47.2031 177.047 47.2812 176.797 47.4375C176.547 47.5938 176.359 47.8177 176.234 48.1094C176.12 48.401 176.062 48.75 176.062 49.1562H171.672C171.672 48.4271 171.812 47.7396 172.094 47.0938C172.375 46.4375 172.786 45.8646 173.328 45.375C173.88 44.875 174.536 44.4844 175.297 44.2031C176.057 43.9219 176.911 43.7812 177.859 43.7812C178.984 43.7812 179.984 43.974 180.859 44.3594C181.734 44.7344 182.427 45.3333 182.938 46.1562C183.448 46.9792 183.703 48.0469 183.703 49.3594V56.8906C183.703 57.8385 183.75 58.6094 183.844 59.2031C183.948 59.7969 184.099 60.3073 184.297 60.7344V61H179.891C179.693 60.5312 179.542 59.9479 179.438 59.25C179.344 58.5417 179.297 57.8281 179.297 57.1094ZM179.828 50.6719L179.844 53.2969H178.234C177.818 53.2969 177.453 53.3646 177.141 53.5C176.839 53.6354 176.583 53.8281 176.375 54.0781C176.167 54.3177 176.01 54.599 175.906 54.9219C175.812 55.2448 175.766 55.5885 175.766 55.9531C175.766 56.3594 175.823 56.7031 175.938 56.9844C176.052 57.2656 176.224 57.4792 176.453 57.625C176.682 57.7708 176.953 57.8438 177.266 57.8438C177.745 57.8438 178.161 57.7448 178.516 57.5469C178.87 57.349 179.13 57.1094 179.297 56.8281C179.474 56.5469 179.531 56.2865 179.469 56.0469L180.469 57.75C180.344 58.1354 180.172 58.5365 179.953 58.9531C179.745 59.3698 179.479 59.7552 179.156 60.1094C178.833 60.4635 178.432 60.7552 177.953 60.9844C177.484 61.2031 176.927 61.3125 176.281 61.3125C175.375 61.3125 174.547 61.1042 173.797 60.6875C173.047 60.2708 172.453 59.6875 172.016 58.9375C171.589 58.1875 171.375 57.2969 171.375 56.2656C171.375 55.4115 171.51 54.6406 171.781 53.9531C172.062 53.2552 172.479 52.6667 173.031 52.1875C173.583 51.6979 174.281 51.3229 175.125 51.0625C175.969 50.8021 176.958 50.6719 178.094 50.6719H179.828ZM194.438 56.4375C194.438 56.1458 194.339 55.8854 194.141 55.6562C193.943 55.4271 193.63 55.1927 193.203 54.9531C192.776 54.7031 192.208 54.4271 191.5 54.125C190.729 53.8125 190.047 53.4896 189.453 53.1562C188.859 52.8229 188.354 52.4531 187.938 52.0469C187.531 51.6406 187.224 51.1771 187.016 50.6562C186.807 50.1354 186.703 49.5417 186.703 48.875C186.703 48.1562 186.833 47.4948 187.094 46.8906C187.365 46.276 187.75 45.7396 188.25 45.2812C188.75 44.8125 189.359 44.4479 190.078 44.1875C190.807 43.9167 191.625 43.7812 192.531 43.7812C193.802 43.7812 194.891 44.0052 195.797 44.4531C196.714 44.8906 197.417 45.5052 197.906 46.2969C198.396 47.0885 198.641 48.0104 198.641 49.0625H194.266C194.266 48.6875 194.208 48.3542 194.094 48.0625C193.979 47.7604 193.792 47.526 193.531 47.3594C193.281 47.1927 192.943 47.1094 192.516 47.1094C192.203 47.1094 191.922 47.1771 191.672 47.3125C191.432 47.4479 191.24 47.6302 191.094 47.8594C190.958 48.0781 190.891 48.3385 190.891 48.6406C190.891 48.8698 190.938 49.0729 191.031 49.25C191.135 49.4271 191.297 49.599 191.516 49.7656C191.734 49.9323 192.026 50.1094 192.391 50.2969C192.766 50.474 193.224 50.6719 193.766 50.8906C194.891 51.3073 195.812 51.7552 196.531 52.2344C197.26 52.7135 197.802 53.276 198.156 53.9219C198.51 54.5573 198.688 55.3438 198.688 56.2812C198.688 57.0312 198.542 57.7135 198.25 58.3281C197.969 58.9427 197.557 59.474 197.016 59.9219C196.474 60.3698 195.823 60.7135 195.062 60.9531C194.312 61.1927 193.474 61.3125 192.547 61.3125C191.182 61.3125 190.031 61.0417 189.094 60.5C188.156 59.9583 187.448 59.2656 186.969 58.4219C186.49 57.5677 186.25 56.6823 186.25 55.7656H190.406C190.427 56.3281 190.531 56.7708 190.719 57.0938C190.917 57.4062 191.182 57.625 191.516 57.75C191.849 57.875 192.219 57.9375 192.625 57.9375C193.031 57.9375 193.365 57.8854 193.625 57.7812C193.896 57.6667 194.099 57.4948 194.234 57.2656C194.37 57.026 194.438 56.75 194.438 56.4375ZM205.734 37V61H201.359V37H205.734ZM205.109 51.9688L203.922 52C203.922 50.8125 204.042 49.7188 204.281 48.7188C204.531 47.7188 204.891 46.849 205.359 46.1094C205.828 45.3698 206.396 44.7969 207.062 44.3906C207.74 43.9844 208.484 43.7812 209.297 43.7812C209.995 43.7812 210.63 43.901 211.203 44.1406C211.776 44.3802 212.271 44.7552 212.688 45.2656C213.115 45.776 213.443 46.4479 213.672 47.2812C213.901 48.1146 214.016 49.1302 214.016 50.3281V61H209.625V50.2969C209.625 49.5677 209.552 48.9948 209.406 48.5781C209.26 48.1615 209.042 47.8698 208.75 47.7031C208.458 47.526 208.094 47.4375 207.656 47.4375C207.188 47.4375 206.786 47.5573 206.453 47.7969C206.13 48.026 205.87 48.3438 205.672 48.75C205.474 49.1562 205.328 49.6354 205.234 50.1875C205.151 50.7396 205.109 51.3333 205.109 51.9688ZM221.594 47.8594V61H217.219V44.0938H221.344L221.594 47.8594ZM225.578 43.9688L225.516 48.3281C225.318 48.2865 225.078 48.2552 224.797 48.2344C224.526 48.2135 224.286 48.2031 224.078 48.2031C223.589 48.2031 223.172 48.2812 222.828 48.4375C222.484 48.5833 222.198 48.8073 221.969 49.1094C221.75 49.401 221.583 49.7656 221.469 50.2031C221.354 50.6406 221.286 51.1354 221.266 51.6875L220.438 51.375C220.438 50.2708 220.521 49.2604 220.688 48.3438C220.865 47.4167 221.125 46.6146 221.469 45.9375C221.812 45.25 222.224 44.7188 222.703 44.3438C223.193 43.9688 223.745 43.7812 224.359 43.7812C224.568 43.7812 224.786 43.8021 225.016 43.8438C225.255 43.875 225.443 43.9167 225.578 43.9688Z" fill="#FF7500"/>
<defs>
<clipPath id="clip0_19_119">
<rect width="38" height="59.1841" fill="white" transform="translate(0 20.4079)"/>
</clipPath>
</defs>
</svg>
